<svg width="386" height="197" viewBox="0 0 386 197" fill="none" xmlns="http://www.w3.org/2000/svg">
<g clip-path="url(#clip0_0_7)">
<mask id="mask0_0_7" style="mask-type:alpha" maskUnits="userSpaceOnUse" x="0" y="0" width="391" height="197">
<path d="M0 0H390.042V197H0V0Z" fill="white"/>
</mask>
<g mask="url(#mask0_0_7)">
<path d="M0 0H390.042V197H0V0Z" fill="#382AE1"/>
<path d="M189.657 41.1909V53.1613H191.118V56.4056H196.581V126.236L207.639 132.234V120.691H210.279V133.716L212.866 135.097V236.201L27.6496 238.383V173.698H33.7282V111.502H35.9367V102.95H38.576V111.502H50.8407L50.8398 111.515V111.69C50.8311 113.545 50.7635 128.736 50.7583 139.919V142.622C50.7609 147.993 50.7826 151.908 50.8398 151.975C50.897 152.042 51.5193 152.068 52.354 152.071H52.7874C54.6527 152.064 57.1827 151.975 57.1827 151.975V184.604H62.1978V68.4118H68.5936V62.0039H71.2329V68.4127H91.2646V74.1391H98.8834V62.0057H101.523V74.1391H105.262V95.425H114.235V133.598H124.793V168.245H130.326V96.2336H137.295V85.2079H139.933V96.2327H159.103V56.4333H164.698V53.1613H187.017V41.1909H189.657ZM13.7312 132.07V135.787H16.5031L22.0807 238.101H-6.93408L-1.34782 135.788H0.833819V132.071H13.7312V132.07Z" fill="#1E1FCD"/>
<path d="M366.476 73.4273V85.3977H367.937V88.6419H373.4V158.472L384.458 164.471V152.928H387.098V165.952L389.685 167.334V268.438L204.469 270.619V205.934H210.547V143.738H212.756V135.187H215.395V143.738H227.66L227.659 143.751V143.926C227.65 145.782 227.582 160.972 227.577 172.156V174.858C227.58 180.229 227.602 184.144 227.659 184.211C227.716 184.278 228.338 184.304 229.173 184.308H229.606C231.472 184.301 234.002 184.211 234.002 184.211V216.841H239.017V100.648H245.413V94.2403H248.052V100.648H268.084V106.375H275.702V94.2412H278.342V106.375H282.081V127.66H291.054V165.834H301.612V200.481H307.145V128.469H314.114V117.444H316.752V128.469H335.922V88.6697H341.517V85.3977H363.836V73.4273H366.476ZM190.55 164.306V168.023H193.322L198.9 270.337H169.885L175.471 168.023H177.653V164.306H190.55Z" fill="#1E1FCD"/>
<path d="M194.798 24.9778C194.671 23.0821 186.456 28.5972 186.456 28.5972C186.456 28.5972 193.415 23.0821 192.818 21.704C192.222 20.325 184.381 26.3568 184.381 26.3568C184.381 26.3568 191.538 20.6698 190.433 19.4555C189.327 18.2404 181.684 24.6331 181.684 24.6331C181.684 24.6331 189.478 17.559 186.503 17.387C185.168 17.3136 174.678 24.6742 163.314 33.5124C166.495 37.6154 169.676 41.5786 173.112 45.4112C176.754 41.5213 179.625 38.4275 180.015 37.9109C181.183 36.3599 192.794 37.3942 192.842 35.4985C192.89 33.6028 185.192 32.7405 185.192 32.7405C185.192 32.7405 194.926 26.8735 194.798 24.9778Z" fill="white"/>
<path d="M173.063 45.7801C173.014 45.781 172.966 45.7712 172.921 45.7515C172.876 45.7317 172.835 45.7024 172.802 45.6655C169.747 42.252 166.63 38.4687 162.979 33.7416C162.949 33.7029 162.927 33.6583 162.913 33.6105C162.899 33.5627 162.895 33.5126 162.901 33.4631C162.916 33.363 162.967 33.2724 163.044 33.2088C171.449 26.6434 184.571 17.0181 186.448 17.0181C186.868 16.9769 187.264 17.2276 187.419 17.6333C187.673 18.372 186.782 19.734 185.613 21.105C187.792 19.6033 189.971 18.4455 190.655 19.2012C190.816 19.3803 190.892 19.623 190.861 19.8657C190.806 20.5381 190.067 21.507 189.08 22.5816C190.575 21.6709 191.975 20.9814 192.619 21.1542C192.722 21.1751 192.819 21.2208 192.902 21.2877C192.985 21.3546 193.051 21.4408 193.096 21.5393C193.486 22.4016 191.991 24.1576 190.249 25.807C192.118 24.7727 194.011 23.9355 194.735 24.3134C194.852 24.3724 194.952 24.463 195.023 24.5758C195.095 24.6885 195.135 24.819 195.141 24.9536C195.259 26.7266 188.937 30.8287 186.225 32.5023C188.707 32.856 193.168 33.7336 193.128 35.5066C193.128 36.7951 190.496 37.0082 186.242 37.2375C183.76 37.3772 180.674 37.55 180.229 38.1401C179.783 38.7311 177.604 41.0781 173.303 45.6736C173.237 45.7367 173.153 45.7746 173.063 45.781V45.7801ZM163.783 33.5778C167.211 38.0094 170.145 41.6118 173.072 44.8605C178.114 39.4788 179.434 37.9843 179.68 37.6807C180.284 36.8605 182.56 36.6957 186.225 36.4907C188.388 36.368 192.413 36.1468 192.428 35.4895C192.428 34.5296 188.643 33.5124 185.104 33.1103C185.029 33.1014 184.958 33.0679 184.903 33.0148C184.847 32.9617 184.809 32.8917 184.794 32.8148C184.778 32.7381 184.785 32.6581 184.815 32.5858C184.845 32.5136 184.896 32.4528 184.96 32.4119C189.676 29.5894 194.503 26.0452 194.44 25.0271C193.947 24.6742 190.384 26.4714 186.655 28.9742C186.576 29.0158 186.485 29.0265 186.4 29.0042C186.314 28.982 186.239 28.9283 186.188 28.8532C186.138 28.7781 186.115 28.6866 186.125 28.5958C186.135 28.5049 186.176 28.4208 186.242 28.359C189.828 25.5196 192.739 22.5081 192.468 21.9171C191.935 21.6458 188.309 23.837 184.587 26.7168C184.51 26.7718 184.415 26.7941 184.322 26.7791C184.23 26.7641 184.146 26.7129 184.089 26.6362C184.032 26.5594 184.006 26.463 184.015 26.3667C184.025 26.2704 184.07 26.1816 184.141 26.1186C186.424 24.2973 190.074 20.9895 190.17 19.8657V19.7761C189.724 19.2657 185.772 21.7533 181.891 24.9859C181.815 25.0448 181.72 25.0717 181.626 25.061C181.531 25.0504 181.444 25.003 181.382 24.9286C181.349 24.8949 181.323 24.8548 181.304 24.8104C181.286 24.766 181.277 24.7184 181.277 24.6702C181.277 24.6221 181.286 24.5744 181.304 24.53C181.323 24.4857 181.349 24.4455 181.382 24.4119C184.158 21.884 186.996 18.6675 186.743 17.9377C186.743 17.8634 186.56 17.8303 186.417 17.8222C185.327 17.7649 176.412 23.7797 163.783 33.5778Z" fill="#231F20"/>
<path d="M132.665 61.6753C130.326 69.2992 144.45 104.511 144.45 104.511L161.946 82.1991C161.556 81.5096 152.713 65.6395 152.713 65.6395C152.713 65.6395 165.764 53.1748 173.04 45.4112C169.621 41.5786 166.392 37.5822 163.242 33.5124C149.278 44.3769 133.953 57.4748 132.665 61.6753Z" fill="#231F20"/>
<path d="M144.45 104.873H144.363C144.303 104.864 144.246 104.839 144.198 104.8C144.151 104.761 144.114 104.71 144.092 104.651C143.511 103.215 129.945 69.2419 132.299 61.5768C133.627 57.2518 149 44.0976 163.019 33.233C163.092 33.1753 163.183 33.1491 163.273 33.1598C163.364 33.1705 163.447 33.2173 163.505 33.2903C167.139 38.0004 170.248 41.7756 173.295 45.173C173.416 45.3136 173.416 45.5249 173.295 45.6655C166.591 52.8211 154.844 64.0966 153.151 65.7129C156.185 71.1513 159.22 76.5891 162.256 82.0263C162.334 82.1517 162.334 82.3129 162.256 82.4373L144.76 104.741C144.723 104.788 144.676 104.825 144.621 104.848C144.567 104.871 144.508 104.88 144.45 104.873ZM163.202 34.0129C150.002 44.2865 134.271 57.6467 132.983 61.7819C130.868 68.6751 142.741 99.2593 144.53 103.806L161.533 82.166L152.427 65.8195C152.389 65.7465 152.376 65.6628 152.389 65.5813C152.402 65.4997 152.441 65.4249 152.499 65.3682C152.625 65.2455 165.35 53.0593 172.587 45.4031C169.661 42.1204 166.67 38.4938 163.202 34.0129Z" fill="#231F20"/>
<path d="M174.257 98.0782C175.688 108.303 182.281 116.952 189.438 124.854C193.724 129.548 198.981 134.324 205.257 134.021C208.254 133.865 211.069 132.534 213.686 131.026C220.236 127.273 226.096 122.359 230.999 116.508C230.039 116.512 229.112 116.149 228.397 115.488C227.682 114.828 227.229 113.917 227.126 112.931C228.405 113.548 229.824 113.789 231.227 113.627C232.63 113.465 233.963 112.906 235.078 112.012C239.945 108.024 237.583 104.503 233.861 101.533C228.044 96.9053 223.415 90.8723 220.382 83.9641C215.738 73.2455 206.513 58.9272 192.85 62.1929C179.712 65.327 176.149 77.489 174.336 89.5517C173.897 92.3738 173.87 95.248 174.257 98.0782Z" fill="white"/>
<path d="M204.668 134.406C198.504 134.406 193.383 129.729 189.176 125.108C182.456 117.724 175.385 108.754 173.899 98.1355C173.496 95.2549 173.515 92.3281 173.954 89.4532C174.75 84.2838 176.014 77.661 179.012 72.2945C180.429 69.622 182.39 67.2984 184.76 65.4836C187.13 63.6688 189.852 62.406 192.739 61.7819C198.973 60.2972 210.886 61.1748 220.692 83.7662C223.693 90.6232 228.285 96.6099 234.061 101.196C236.844 103.42 238.148 105.373 238.164 107.359C238.164 109 237.202 110.69 235.278 112.283C234.204 113.142 232.937 113.707 231.595 113.923C230.253 114.14 228.88 114.002 227.603 113.522C227.83 114.267 228.279 114.918 228.886 115.383C229.493 115.847 230.227 116.1 230.983 116.106C231.054 116.103 231.125 116.121 231.186 116.159C231.247 116.198 231.295 116.254 231.325 116.32C231.356 116.386 231.367 116.459 231.357 116.53C231.347 116.602 231.316 116.669 231.269 116.722C226.354 122.634 220.459 127.594 213.861 131.37C211.404 132.782 208.452 134.25 205.271 134.406H204.667H204.668ZM196.611 62.0774C195.364 62.0774 194.121 62.2242 192.905 62.5126C179.999 65.5983 176.515 77.3323 174.67 89.5929C174.243 92.3916 174.224 95.2407 174.615 98.0451C176.07 108.466 183.061 117.33 189.724 124.617C193.956 129.261 199.101 133.972 205.257 133.643C208.286 133.495 211.141 132.067 213.527 130.697C219.824 127.083 225.473 122.378 230.227 116.788C229.321 116.618 228.491 116.15 227.864 115.454C227.236 114.757 226.843 113.869 226.744 112.923C226.738 112.857 226.75 112.791 226.778 112.732C226.806 112.672 226.849 112.622 226.903 112.586C226.957 112.552 227.019 112.534 227.082 112.534C227.145 112.534 227.207 112.552 227.261 112.586C228.475 113.17 229.822 113.397 231.152 113.243C232.483 113.09 233.748 112.562 234.808 111.716C236.55 110.281 237.432 108.828 237.417 107.391C237.417 105.685 236.16 103.863 233.6 101.819C227.733 97.1579 223.068 91.0761 220.016 84.1109C212.151 65.926 202.973 62.0774 196.611 62.0774Z" fill="#231F20"/>
<path d="M265.099 130.172C264.543 132.445 255.406 149.284 255.406 149.284L267.335 155.939C267.335 155.939 278.126 137.278 279.048 136.039C279.971 134.8 287.796 124.042 288.862 120.268C289.929 116.492 282.405 113.702 279.319 114.006C276.234 114.31 265.657 127.899 265.099 130.172Z" fill="white"/>
<path d="M267.318 156.317C267.259 156.317 267.201 156.3 267.151 156.268L255.223 149.613C255.179 149.589 255.142 149.556 255.111 149.517C255.081 149.477 255.059 149.431 255.047 149.382C255.028 149.337 255.018 149.288 255.018 149.239C255.018 149.19 255.028 149.141 255.047 149.096C258.228 143.293 264.265 131.862 264.702 130.082C265.291 127.669 275.988 113.924 279.215 113.67C281.562 113.464 286.453 114.932 288.417 117.386C288.776 117.785 289.031 118.271 289.159 118.799C289.287 119.327 289.283 119.88 289.148 120.406C288.011 124.509 279.358 136.195 279.279 136.31C278.373 137.517 267.692 156.004 267.581 156.169C267.551 156.213 267.511 156.249 267.466 156.274C267.42 156.3 267.37 156.314 267.318 156.317ZM255.906 149.128L267.192 155.438C268.646 152.919 277.879 136.974 278.746 135.81C280.567 133.347 287.542 123.599 288.497 120.16C288.6 119.75 288.6 119.32 288.495 118.91C288.391 118.5 288.185 118.126 287.899 117.822C286.11 115.582 281.459 114.187 279.327 114.375C276.417 114.638 265.935 128.326 265.449 130.262C264.924 132.404 257.227 146.691 255.906 149.128Z" fill="#231F20"/>
<path d="M261.672 137.45L251.015 150.86L228.032 134.965L218.242 153.773C218.242 153.773 250.793 178.99 255.405 176.577C260.018 174.165 273.991 144.409 273.991 144.409L261.672 137.451V137.45Z" fill="#231F20"/>
<path d="M254.666 177.086C247.954 177.086 221.209 156.522 218.028 154.06C217.963 154.007 217.918 153.932 217.9 153.848C217.883 153.764 217.894 153.676 217.933 153.6L227.722 134.792C227.745 134.748 227.777 134.709 227.815 134.678C227.853 134.647 227.897 134.624 227.945 134.612C227.992 134.6 228.041 134.597 228.089 134.606C228.137 134.614 228.182 134.633 228.223 134.66L250.928 150.375L261.386 137.245C261.437 137.179 261.509 137.134 261.589 137.117C261.669 137.101 261.752 137.115 261.823 137.156L274.181 144.114C274.259 144.16 274.316 144.235 274.343 144.323C274.369 144.411 274.363 144.506 274.324 144.59C273.752 145.813 260.225 174.485 255.549 176.922C255.271 177.048 254.968 177.105 254.666 177.086ZM218.688 153.666C227.882 160.765 251.652 178.136 255.27 176.258C259.477 174.049 272.074 147.733 273.562 144.566L261.76 137.91L251.286 151.089C251.234 151.161 251.156 151.209 251.07 151.223C250.984 151.237 250.896 151.216 250.825 151.163L228.152 135.481L218.688 153.666ZM271.43 104.659L271.326 137.45H286.365V104.659H271.43Z" fill="#231F20"/>
<path d="M286.365 137.844H271.327C271.28 137.844 271.234 137.835 271.191 137.816C271.148 137.798 271.11 137.77 271.077 137.736C271.044 137.702 271.019 137.661 271.002 137.616C270.984 137.571 270.976 137.524 270.977 137.476L271.072 104.651C271.074 104.554 271.113 104.463 271.18 104.395C271.247 104.328 271.337 104.29 271.43 104.29H286.364C286.559 104.29 286.715 104.451 286.715 104.651V137.476C286.716 137.524 286.707 137.571 286.69 137.616C286.673 137.661 286.648 137.702 286.615 137.736C286.583 137.77 286.544 137.798 286.501 137.816C286.458 137.835 286.412 137.844 286.365 137.844ZM271.684 137.123H286V105.021H271.764L271.684 137.123Z" fill="#231F20"/>
<path d="M272.957 107.556L272.878 133.323H284.822V107.556H272.957Z" fill="white"/>
<path d="M284.822 133.692H272.893C272.846 133.693 272.799 133.684 272.755 133.666C272.712 133.648 272.672 133.62 272.638 133.586C272.604 133.55 272.577 133.508 272.559 133.462C272.542 133.415 272.533 133.365 272.535 133.315L272.607 107.556C272.61 107.457 272.649 107.363 272.717 107.294C272.786 107.225 272.877 107.187 272.973 107.187H284.838C285.036 107.187 285.196 107.352 285.196 107.556V133.323C285.196 133.373 285.186 133.423 285.167 133.468C285.148 133.514 285.12 133.556 285.085 133.59C285.051 133.625 285.009 133.651 284.964 133.669C284.919 133.687 284.871 133.694 284.822 133.692ZM273.243 132.921H284.457V107.934H273.322L273.243 132.921H273.243Z" fill="#231F20"/>
<path d="M264.448 131.879C264.448 131.879 262.205 120.834 265.569 119.102C268.932 117.371 280.496 115.343 278.707 118.051C276.918 120.759 270.651 122.434 270.651 122.434C270.651 122.434 271.939 126.298 270.524 129.039" fill="white"/>
<path d="M264.448 132.248C264.365 132.249 264.284 132.22 264.22 132.166C264.156 132.112 264.113 132.036 264.098 131.952C264.002 131.493 261.831 120.603 265.41 118.765C268.314 117.28 277.681 115.368 279.048 116.977C279.193 117.161 279.268 117.393 279.259 117.63C279.251 117.867 279.159 118.092 279.001 118.264C277.41 120.727 272.503 122.285 271.104 122.697C271.398 123.772 272.067 126.848 270.842 129.261C270.795 129.348 270.717 129.412 270.624 129.439C270.532 129.467 270.432 129.456 270.348 129.408C270.264 129.36 270.202 129.28 270.174 129.185C270.146 129.09 270.155 128.988 270.198 128.9C271.526 126.34 270.317 122.639 270.301 122.598C270.281 122.551 270.271 122.501 270.271 122.45C270.271 122.399 270.281 122.349 270.301 122.302C270.325 122.257 270.358 122.216 270.398 122.184C270.438 122.152 270.483 122.128 270.532 122.114C270.595 122.114 276.686 120.473 278.381 117.887C278.5 117.707 278.532 117.576 278.476 117.51C277.617 116.492 268.933 117.838 265.705 119.48C263.151 120.792 264.177 128.842 264.781 131.838C264.792 131.886 264.793 131.935 264.785 131.984C264.777 132.032 264.759 132.078 264.733 132.12C264.707 132.161 264.674 132.197 264.634 132.224C264.595 132.252 264.551 132.271 264.504 132.281L264.448 132.248Z" fill="#231F20"/>
<path d="M181.303 110.427L161.493 75.3391L139.226 100.851L147.496 119.249C147.496 119.249 134.772 150.326 134.772 211.24C134.772 211.24 202.512 210.936 219.562 210.936L197.295 175.198C197.295 175.198 202.863 158.639 205.733 154.503L222.314 163.817L241.704 136.565L181.303 110.428V110.427Z" fill="#75ECCA"/>
<path d="M181.017 143.876C191.951 150.441 194.536 123.755 195.021 117.978C195.243 116.388 195.151 114.77 194.751 113.218C194.122 111.249 192.651 109.723 191.18 108.294C189.423 106.653 187.394 104.93 185 104.824C183.884 104.842 182.786 105.129 181.796 105.663C180.806 106.198 179.951 106.964 179.299 107.9C178.008 109.785 177.08 111.908 176.563 114.153C173.987 123.435 174.082 133.233 179.052 141.669C179.468 142.473 180.059 143.167 180.778 143.695L181.017 143.876Z" fill="#231F20"/>
<path d="M184.285 145.271C183.065 145.232 181.876 144.859 180.842 144.188L180.595 144.032C179.827 143.474 179.198 142.738 178.757 141.882C174.201 134.144 173.326 124.534 176.229 114.08C176.756 111.79 177.703 109.626 179.02 107.704C179.703 106.718 180.603 105.912 181.645 105.353C182.687 104.794 183.843 104.497 185.017 104.487C187.466 104.594 189.541 106.267 191.379 108.056C192.874 109.476 194.385 111.044 195.045 113.103C195.455 114.709 195.553 116.382 195.331 118.027C194.592 126.635 192.468 141.545 186.583 144.688C185.874 145.071 185.085 145.271 184.285 145.27V145.271ZM184.778 105.209C183.751 105.262 182.75 105.553 181.848 106.062C180.946 106.571 180.167 107.283 179.568 108.147C178.31 109.996 177.406 112.077 176.905 114.277C174.05 124.534 174.901 133.972 179.354 141.504C179.735 142.26 180.279 142.915 180.945 143.417L181.175 143.556C183.068 144.696 184.738 144.852 186.273 144.032C190.36 141.849 193.43 132.346 194.655 117.945C194.867 116.402 194.781 114.832 194.4 113.324C193.796 111.429 192.357 109.944 190.925 108.582C189.144 106.891 187.196 105.299 184.969 105.209H184.778H184.778ZM213.646 93.8356C214.656 97.618 213.002 102.436 210.52 105.234C208.867 107.08 205.24 107.573 204.509 104.568C204.052 102.591 203.983 100.539 204.307 98.5331C204.631 96.5276 205.34 94.6094 206.393 92.8918C207.983 90.192 211.03 88.6491 212.986 92.1199C213.277 92.6598 213.499 93.2365 213.646 93.8356Z" fill="#231F20"/>
<path d="M207.228 107.08C206.923 107.082 206.619 107.046 206.322 106.973C205.788 106.833 205.303 106.541 204.922 106.131C204.541 105.72 204.279 105.208 204.166 104.651C203.699 102.63 203.626 100.534 203.951 98.4842C204.276 96.4343 204.992 94.4717 206.059 92.7109C207.173 90.8645 208.747 89.7487 210.219 89.7568C211.053 89.7568 212.255 90.1597 213.257 91.948C213.572 92.5121 213.818 93.1165 213.988 93.7451C215.086 97.8481 213.193 102.771 210.807 105.48C210.346 105.983 209.791 106.383 209.176 106.658C208.561 106.933 207.898 107.077 207.227 107.08H207.228ZM210.179 90.4785C208.97 90.4785 207.626 91.4725 206.655 93.0807C205.635 94.7607 204.95 96.6344 204.64 98.5917C204.33 100.549 204.401 102.551 204.85 104.479C205.015 105.355 205.656 106.053 206.497 106.267C207.177 106.396 207.879 106.347 208.536 106.123C209.193 105.899 209.786 105.509 210.259 104.987C212.501 102.477 214.33 97.7415 213.312 93.9341C213.161 93.3598 212.939 92.8081 212.652 92.2927C211.976 91.0946 211.157 90.4794 210.211 90.4705L210.179 90.4794V90.4785Z" fill="#231F20"/>
<path d="M196.588 110.764C194.997 117.059 193.407 131.395 183.267 123.894C182.229 123.052 181.322 122.051 180.579 120.924C175.585 114.056 177.008 109.722 179.593 102.181C180.707 98.8985 181.669 95.6157 182.774 92.3339C183.88 89.0512 185.701 85.9654 187.212 82.8555C187.156 82.963 192.182 83.6757 197.208 81.3207C202.234 78.9657 206.393 76.5211 206.393 76.5211C207.754 78.6209 209.225 80.213 209.948 82.7087C210.616 85.1282 210.808 87.6605 210.513 90.1588C209.876 96.2891 207.499 102.919 204.802 108.393C202.107 113.866 196.588 110.764 196.588 110.764Z" fill="white"/>
<path d="M188.389 126.413C186.798 126.413 185.025 125.675 183.052 124.214C181.984 123.348 181.051 122.319 180.284 121.161C175.139 114.08 176.69 109.558 179.251 102.075C179.783 100.499 180.293 98.8824 180.785 97.3225C181.319 95.6408 181.867 93.909 182.456 92.2103C183.344 89.831 184.393 87.5194 185.597 85.2929C186.042 84.4226 186.488 83.5531 186.909 82.6836C186.93 82.6395 186.96 82.6002 186.995 82.568C187.031 82.5358 187.073 82.5113 187.118 82.496C187.164 82.4806 187.211 82.4748 187.259 82.4787C187.306 82.4826 187.352 82.4963 187.394 82.5188C190.691 82.9189 194.031 82.3856 197.057 80.976C200.166 79.4993 203.219 77.901 206.21 76.1844C206.291 76.1395 206.386 76.1272 206.476 76.1498C206.565 76.1725 206.643 76.2285 206.695 76.3071C207.038 76.8327 207.38 77.3243 207.722 77.8087C208.849 79.2298 209.721 80.8473 210.298 82.5851C210.976 85.0565 211.173 87.6417 210.878 90.192C210.298 95.6811 208.263 102.205 205.129 108.549C204.801 109.303 204.326 109.978 203.734 110.533C203.141 111.088 202.444 111.511 201.686 111.774C200.058 112.201 198.338 112.042 196.81 111.323C196.637 112.034 196.473 112.748 196.318 113.464C195.267 118.166 193.836 124.617 190.042 126.093C189.514 126.3 188.954 126.408 188.389 126.413ZM187.434 83.2737C187.053 84.0948 186.639 84.8497 186.242 85.6377C185.054 87.8355 184.018 90.1167 183.14 92.4646C182.559 94.106 182.011 95.879 181.478 97.5526C180.945 99.2271 180.476 100.737 179.935 102.32C177.366 109.821 175.958 113.948 180.873 120.71C181.595 121.807 182.475 122.784 183.482 123.607C185.978 125.461 188.11 126.069 189.844 125.396C193.271 124.058 194.615 117.847 195.665 113.308C195.88 112.356 196.071 111.462 196.27 110.699C196.285 110.645 196.312 110.594 196.348 110.552C196.384 110.509 196.428 110.475 196.478 110.453C196.528 110.43 196.583 110.419 196.637 110.42C196.692 110.422 196.746 110.435 196.795 110.461C198.265 111.241 199.957 111.454 201.566 111.061C202.229 110.827 202.838 110.454 203.354 109.965C203.87 109.476 204.282 108.882 204.565 108.22C207.658 101.952 209.678 95.5172 210.242 90.1176C210.53 87.6692 210.341 85.1861 209.686 82.8143C209.121 81.1554 208.276 79.6133 207.189 78.26C206.903 77.858 206.608 77.4398 206.331 77.0207C203.41 78.6765 200.433 80.2257 197.407 81.6655C194.283 83.1154 190.838 83.6709 187.434 83.2737Z" fill="#231F20"/>
<path d="M194.917 116.853C194.917 116.853 189.995 115.696 187.76 111.471C185.526 107.244 186.878 104.003 186.878 104.003C186.878 104.003 191.172 109.132 196.603 110.789L194.918 116.853H194.917Z" fill="#231F20"/>
<path d="M194.917 117.215H194.838C194.631 117.165 189.733 115.976 187.442 111.659C185.152 107.343 186.48 104.012 186.535 103.871C186.559 103.815 186.597 103.765 186.644 103.728C186.691 103.691 186.747 103.667 186.806 103.658C186.864 103.649 186.923 103.655 186.979 103.675C187.034 103.696 187.084 103.729 187.124 103.773C187.124 103.823 191.427 108.844 196.667 110.453C196.711 110.467 196.753 110.489 196.789 110.519C196.825 110.548 196.855 110.585 196.877 110.627C196.9 110.669 196.914 110.715 196.919 110.763C196.924 110.81 196.919 110.858 196.906 110.904L195.259 116.952C195.238 117.028 195.193 117.095 195.132 117.143C195.07 117.19 194.995 117.215 194.918 117.214L194.917 117.215ZM187.012 104.716C186.55 106.962 186.922 109.306 188.055 111.282C189.875 114.711 193.566 116.057 194.671 116.394L196.158 111.018C191.76 109.566 188.198 106.005 187.013 104.716H187.012ZM197.932 100.425C196.93 100.345 195.959 100.031 195.093 99.5056C195.053 99.4819 195.018 99.4503 194.989 99.4125C194.961 99.3748 194.94 99.3316 194.928 99.2856C194.916 99.2395 194.913 99.1914 194.919 99.144C194.924 99.0967 194.939 99.051 194.962 99.0095C194.985 98.9681 195.016 98.9317 195.052 98.9025C195.089 98.8732 195.131 98.8517 195.175 98.8392C195.22 98.8266 195.266 98.8232 195.312 98.8293C195.358 98.8353 195.402 98.8506 195.442 98.8743C196.055 99.2352 197.828 100.056 198.623 99.5217C199.141 99.1779 198.576 95.8056 197.383 92.1369C197.367 92.0913 197.36 92.0428 197.363 91.9944C197.365 91.946 197.377 91.8986 197.397 91.8549C197.418 91.8113 197.446 91.7723 197.482 91.7403C197.517 91.7083 197.558 91.6839 197.603 91.6685C197.647 91.6532 197.694 91.6472 197.741 91.6509C197.788 91.6546 197.833 91.668 197.875 91.6902C197.917 91.7124 197.954 91.743 197.984 91.7802C198.014 91.8174 198.037 91.8604 198.05 91.9068C198.767 94.0979 200.286 99.2925 198.998 100.113C198.678 100.319 198.309 100.427 197.932 100.425Z" fill="#231F20"/>
<path d="M196.477 104.873C195.652 104.886 194.835 104.701 194.091 104.331C192.103 103.313 190.91 100.926 190.496 97.2329C190.486 97.1373 190.514 97.0417 190.572 96.9665C190.63 96.8913 190.714 96.8423 190.806 96.83C190.852 96.8242 190.899 96.828 190.943 96.8411C190.988 96.8541 191.029 96.8762 191.066 96.906C191.102 96.9359 191.132 96.9728 191.155 97.0148C191.177 97.0568 191.191 97.1029 191.196 97.1505C191.569 100.58 192.643 102.78 194.377 103.715C197.025 105.069 200.405 103.018 200.436 103.001C200.476 102.976 200.52 102.959 200.566 102.952C200.612 102.944 200.659 102.946 200.704 102.958C200.749 102.969 200.792 102.99 200.829 103.019C200.867 103.048 200.898 103.084 200.922 103.125C200.969 103.208 200.983 103.307 200.961 103.4C200.938 103.494 200.881 103.575 200.802 103.626C199.477 104.391 197.994 104.818 196.477 104.873ZM196.85 88.4933C196.761 88.4933 196.676 88.4585 196.611 88.396C196.546 88.3335 196.507 88.248 196.5 88.1566C196.444 87.3364 196.214 86.8358 195.8 86.6218C195.005 86.1956 193.518 86.9665 193.025 87.3032C192.947 87.3538 192.853 87.3709 192.763 87.3509C192.673 87.3309 192.594 87.2754 192.543 87.1962C192.492 87.117 192.473 87.0203 192.49 86.9269C192.508 86.8335 192.559 86.7507 192.635 86.6961C192.722 86.6388 194.758 85.2759 196.11 85.9735C196.463 86.1932 196.75 86.508 196.942 86.884C197.134 87.26 197.223 87.6829 197.2 88.1073C197.203 88.1548 197.197 88.2024 197.183 88.2474C197.168 88.2924 197.145 88.334 197.114 88.3698C197.084 88.4056 197.047 88.4348 197.006 88.4559C196.965 88.4769 196.92 88.4893 196.874 88.4924H196.85V88.4933ZM205.67 92.5631C205.582 92.5635 205.498 92.5301 205.433 92.4695C205.368 92.4088 205.328 92.3253 205.32 92.2354C205.32 92.2354 205.16 90.4302 204.167 89.7729C203.308 89.1908 202.305 90.5197 202.297 90.5367C202.269 90.5746 202.234 90.6064 202.194 90.6302C202.154 90.6541 202.11 90.6695 202.064 90.6755C202.018 90.6816 201.972 90.6782 201.927 90.6656C201.882 90.653 201.841 90.6314 201.804 90.6021C201.767 90.5737 201.735 90.538 201.712 90.497C201.688 90.456 201.672 90.4105 201.666 90.3631C201.659 90.3158 201.662 90.2676 201.673 90.2213C201.685 90.175 201.705 90.1316 201.733 90.0935C202.219 89.4371 203.427 88.4028 204.556 89.1658C205.836 90.0362 206.012 92.1038 206.019 92.1861C206.024 92.2336 206.019 92.2816 206.005 92.3272C205.992 92.3727 205.969 92.4151 205.94 92.4517C205.91 92.4884 205.874 92.5186 205.833 92.5406C205.792 92.5627 205.747 92.5761 205.701 92.5801L205.67 92.5631ZM177.7 90.5779C177.575 91.8855 177.795 93.2036 178.337 94.3925C179.465 96.5515 182.249 97.4299 184.524 96.7324C190.464 94.9182 193.319 83.2576 188.826 78.6782C184.651 74.4275 179.911 81.1407 178.933 85.104C178.48 86.9665 177.764 88.6903 177.7 90.5779H177.7Z" fill="#231F20"/>
<path d="M182.933 97.3314C181.952 97.3581 180.981 97.1163 180.119 96.6306C179.258 96.1448 178.536 95.4323 178.026 94.5654C177.447 93.3208 177.213 91.9346 177.35 90.5609C177.459 89.1873 177.726 87.8324 178.145 86.5233C178.289 86.0227 178.431 85.5222 178.559 85.0216C179.251 82.2645 181.819 77.9896 184.849 77.1273C185.596 76.9232 186.382 76.9363 187.122 77.1651C187.861 77.3939 188.525 77.8296 189.04 78.4239C191.212 80.6321 191.92 84.6285 190.893 88.8542C189.868 93.0807 187.458 96.2399 184.595 97.0601C184.055 97.2283 183.496 97.3196 182.933 97.3314ZM178.05 90.594C177.923 91.8394 178.13 93.0968 178.646 94.2296C179.246 95.196 180.137 95.9311 181.183 96.3212C182.228 96.7113 183.368 96.7347 184.427 96.3876C187.061 95.5665 189.287 92.6294 190.242 88.6822C191.195 84.7351 190.567 80.9679 188.579 78.9415C188.153 78.4347 187.598 78.061 186.977 77.8623C186.356 77.6636 185.694 77.6478 185.064 77.8168C182.329 78.6379 179.903 82.6836 179.267 85.2025C179.136 85.7135 178.998 86.2225 178.853 86.7292C178.441 87.9804 178.174 89.2777 178.058 90.594H178.05Z" fill="#231F20"/>
<path d="M210.727 97.7908C210.585 97.7912 210.447 97.7527 210.325 97.6794C210.203 97.6061 210.102 97.5005 210.032 97.3735C209.962 97.2465 209.927 97.1027 209.929 96.9568C209.931 96.8109 209.971 96.6683 210.044 96.5434C210.13 96.3957 218.95 81.4281 220.462 72.0975C221.01 68.7163 219.555 65.2867 216.366 62.4221C212.008 58.5162 205.503 56.7682 200.898 58.2699C192.707 60.9455 188.349 80.4261 188.301 80.5909C188.248 80.7968 188.121 80.9736 187.945 81.0841C187.769 81.1946 187.558 81.2302 187.357 81.1835C187.156 81.1367 186.98 81.0112 186.867 80.8334C186.754 80.6556 186.711 80.4393 186.749 80.23C186.933 79.4089 191.362 59.657 200.421 56.7029C205.598 55.0203 212.581 56.8587 217.408 61.1828C221.034 64.4656 222.68 68.4047 222.036 72.3679C220.446 82.0183 211.769 96.7727 211.404 97.3968C211.333 97.5166 211.234 97.6158 211.115 97.6847C210.997 97.7537 210.863 97.7902 210.728 97.7908H210.727Z" fill="#231F20"/>
<path d="M253.846 214.014C250.996 214.004 248.164 213.531 245.456 212.61C242.229 211.43 239.244 209.637 236.653 207.325C232.24 203.641 228.351 199.242 224.589 195.017C222.203 192.317 219.738 189.527 217.161 186.95C209.089 178.875 201.074 174.575 193.303 174.181C182.853 173.639 173.589 179.803 165.143 186.539C164.348 187.196 163.489 187.877 162.646 188.567C155.815 194.154 148.069 200.482 138.526 198.997C132.021 197.987 126.97 193.359 123.884 189.657C116.29 180.542 112.751 167.501 114.509 154.855C116.369 141.234 123.726 131.633 136.379 126.315C146.852 121.917 156.737 115.762 166.304 109.812L166.383 109.772C172.308 106.079 178.598 101.352 180.293 94.2627C180.318 94.1538 180.384 94.0598 180.477 94.0012C180.569 93.9427 180.68 93.9245 180.786 93.9506C180.891 93.9768 180.982 94.0451 181.039 94.1405C181.095 94.236 181.113 94.3508 181.088 94.4597C179.322 101.845 172.88 106.694 166.812 110.469L166.741 110.518C157.151 116.484 147.234 122.655 136.705 127.078C124.33 132.272 117.141 141.652 115.32 154.979C113.618 167.386 117.053 180.147 124.481 189.083C127.48 192.686 132.37 197.183 138.637 198.152C147.838 199.587 155.115 193.638 162.145 187.893L164.65 185.859C173.223 179.023 182.631 172.77 193.335 173.328C201.288 173.738 209.479 178.112 217.694 186.326C220.286 188.927 222.76 191.726 225.154 194.434C228.891 198.668 232.756 203.043 237.13 206.685C239.644 208.932 242.54 210.677 245.671 211.831C256.415 215.409 267.143 211.888 277.633 201.36C293.196 185.703 301.968 161.971 301.69 136.171C301.562 124.124 299.384 114.711 295.025 107.384C293.268 104.421 291.049 101.122 287.438 99.4725C285.594 98.6522 281.267 98.3406 279.598 100.762C278.961 101.689 278.897 102.78 278.802 104.166C278.802 104.766 278.722 105.438 278.635 106.169C278.616 106.273 278.559 106.366 278.476 106.429C278.393 106.491 278.29 106.518 278.188 106.505C278.087 106.491 277.994 106.438 277.929 106.355C277.864 106.273 277.832 106.168 277.84 106.062C277.935 105.356 277.967 104.725 278.007 104.117C278.094 102.658 278.174 101.401 278.945 100.285C280.886 97.4702 285.642 97.7657 287.756 98.7265C291.606 100.466 293.872 103.888 295.709 106.932C300.147 114.392 302.357 123.943 302.493 136.146C302.771 162.143 293.92 186.121 278.198 201.926C270.229 209.976 262.061 214.006 253.846 214.014ZM176.968 33.1515C176.911 33.1509 176.855 33.1382 176.803 33.1142C176.751 33.0901 176.705 33.0553 176.666 33.0118C176.593 32.9338 176.552 32.8294 176.552 32.7208C176.552 32.6122 176.593 32.5078 176.666 32.4298C178.416 30.8618 180.15 30.1732 181.827 30.3693C183.251 30.5699 184.545 31.3316 185.438 32.4951C185.564 32.6796 185.525 32.9339 185.351 33.0691C185.309 33.1011 185.261 33.1241 185.21 33.1369C185.159 33.1497 185.107 33.152 185.055 33.1437C185.003 33.1353 184.953 33.1166 184.909 33.0884C184.864 33.0603 184.825 33.0233 184.794 32.9796C184.033 31.9998 182.943 31.3521 181.74 31.1654C180.293 30.9926 178.766 31.6248 177.191 33.0369C177.131 33.0992 177.052 33.1395 176.968 33.1515Z" fill="#231F20"/>
<path d="M200.659 166.008C200.604 166.02 200.548 166.02 200.493 166.008C200.407 165.961 200.343 165.882 200.313 165.787C200.284 165.692 200.291 165.588 200.333 165.499L210.37 144.738C210.416 144.655 210.491 144.594 210.579 144.567C210.668 144.539 210.763 144.548 210.846 144.591C210.928 144.634 210.991 144.708 211.023 144.798C211.054 144.888 211.051 144.987 211.014 145.074L200.985 165.802C200.955 165.865 200.909 165.918 200.851 165.954C200.793 165.99 200.727 166.009 200.659 166.008ZM181.963 170.054C170.471 170.054 156.968 166.212 156.22 165.999C156.168 165.993 156.118 165.974 156.074 165.946C156.029 165.918 155.991 165.88 155.962 165.835C155.933 165.79 155.913 165.739 155.905 165.685C155.896 165.632 155.899 165.577 155.913 165.525C155.927 165.473 155.951 165.424 155.985 165.382C156.018 165.341 156.06 165.307 156.107 165.284C156.155 165.26 156.206 165.248 156.259 165.247C156.311 165.246 156.363 165.256 156.411 165.278C156.657 165.343 180.77 172.212 191.92 167.821C192.109 167.749 192.318 167.848 192.389 168.043C192.406 168.088 192.415 168.136 192.414 168.185C192.414 168.234 192.403 168.282 192.384 168.327C192.364 168.371 192.336 168.411 192.302 168.444C192.267 168.477 192.226 168.503 192.181 168.519C188.889 169.647 185.43 170.166 181.962 170.054H181.963ZM277.712 102.361H279.446V105.02H277.712V102.361Z" fill="#231F20"/>
<path d="M279.446 105.382H277.712C277.619 105.382 277.529 105.344 277.462 105.276C277.395 105.208 277.357 105.116 277.354 105.02V102.361C277.354 102.313 277.364 102.265 277.382 102.221C277.4 102.177 277.426 102.136 277.46 102.103C277.493 102.069 277.533 102.043 277.576 102.025C277.62 102.008 277.666 101.999 277.712 102H279.446C279.639 102 279.796 102.162 279.796 102.361V105.021C279.796 105.068 279.787 105.115 279.769 105.159C279.752 105.203 279.726 105.243 279.694 105.276C279.661 105.31 279.622 105.336 279.58 105.354C279.537 105.372 279.492 105.382 279.446 105.382ZM278.063 104.651H279.097V102.723H278.063V104.651Z" fill="#231F20"/>
<path d="M184.642 94.6146L184.07 94.0406C185.836 92.2285 186.989 89.8761 187.357 87.3331C187.725 84.7901 187.289 82.1922 186.114 79.9256L186.798 79.5074C188.059 81.9302 188.53 84.7084 188.142 87.4298C187.754 90.1513 186.527 92.6708 184.642 94.6146ZM210.886 105.382L210.147 105.077C212.47 98.8985 211.88 94.3361 211.88 94.2949L212.676 94.1803C212.692 94.3523 213.288 98.98 210.886 105.382ZM146.687 71.4394L152.448 65.3619L153.016 65.935L147.256 72.0133L146.687 71.4394ZM250.846 151.243L251.196 150.506L257.317 153.598L256.967 154.336L250.846 151.243Z" fill="white"/>
<path d="M46.6291 94.0961C46.2945 94.0147 45.9366 93.9573 45.6107 93.8418C45.0987 93.7111 44.6285 93.4448 44.2464 93.0692C43.8643 92.6936 43.5835 92.2217 43.4316 91.6999C43.3224 91.246 43.3085 90.7732 43.3907 90.3133C43.4729 89.8533 43.6494 89.4169 43.9084 89.0332C44.3426 88.3539 44.9066 87.7734 45.5659 87.3275C46.2251 86.8815 46.9657 86.5795 47.742 86.44C48.7683 86.2018 49.2294 86.26 50.8598 86.6701V66.9084L69.6919 63.0194V87.1859C69.7155 87.8063 69.6024 88.424 69.3613 88.9927C69.1202 89.5613 68.7572 90.066 68.2998 90.4687C67.5525 91.2164 66.6263 91.7456 65.616 92.0022C64.6057 92.2588 63.5475 92.2336 62.5498 91.9291C62.0335 91.8109 61.558 91.5499 61.1742 91.174C60.7903 90.7982 60.5126 90.3216 60.3707 89.7953C60.2553 89.3437 60.2375 88.8713 60.3187 88.4119C60.3999 87.9524 60.5781 87.517 60.8405 87.1367C61.2743 86.4537 61.84 85.8707 62.5023 85.4245C63.1646 84.9782 63.9091 84.6782 64.6889 84.5434C65.7174 84.3113 66.789 84.3912 67.7746 84.7736V71.185L66.4389 71.4555C61.9679 72.3838 57.4957 73.3058 53.0223 74.2215C52.7762 74.2708 52.7363 74.3693 52.7363 74.5985V89.0091C52.7593 89.7455 52.6032 90.4762 52.2821 91.1341C51.9611 91.7921 51.4855 92.3564 50.8988 92.7753C50.021 93.4602 48.985 93.8958 47.8937 94.0388C47.8368 94.0542 47.7809 94.0733 47.7264 94.0961H46.6291ZM344.628 150.732V150.264C344.579 149.833 344.423 149.424 344.175 149.074C343.771 148.468 343.249 147.956 342.641 147.573C342.032 147.17 341.354 146.891 340.644 146.752C340.193 146.662 339.728 146.662 339.277 146.752H339.157C339.153 146.697 339.153 146.642 339.157 146.588C339.237 146.267 339.316 145.955 339.403 145.652L340.994 139.908C341.574 137.823 342.164 135.739 342.744 133.655V133.532L342.187 133.483C340.664 133.399 339.142 133.679 337.741 134.303C336.432 134.861 335.339 135.851 334.632 137.117C334.432 137.479 334.282 137.864 334.115 138.25C334.003 138.496 333.916 138.759 333.813 139.013C333.808 139.049 333.808 139.085 333.813 139.12L334.012 138.997C334.643 138.569 335.305 138.191 335.992 137.864C337.052 137.373 338.213 137.159 339.372 137.241C339.871 137.291 340.362 137.405 340.835 137.578C340.832 137.618 340.832 137.659 340.835 137.7C339.87 141.158 338.913 144.613 337.964 148.064C337.952 148.127 337.952 148.191 337.964 148.253C338.032 148.864 338.283 149.437 338.679 149.895C339.183 150.529 339.819 151.037 340.54 151.38L341.161 151.659L341.733 151.831H341.893C342.365 151.93 342.852 151.93 343.324 151.831C343.722 151.773 344.086 151.569 344.35 151.257C344.436 151.132 344.515 151.004 344.589 150.872L344.628 150.732ZM61.657 158.805C61.657 158.608 61.657 158.402 61.7454 158.205C61.8841 157.664 62.1588 157.169 62.5402 156.77C63.1822 156.079 63.9569 155.534 64.8146 155.17C65.6734 154.78 66.5969 154.566 67.5345 154.538C68.1327 154.519 68.729 154.616 69.2923 154.825L69.4431 154.882C69.4474 154.812 69.4474 154.74 69.4431 154.669C69.4431 154.251 69.3634 153.849 69.3157 153.422C69.0141 150.834 68.709 148.255 68.4013 145.683C68.0675 142.877 67.7252 140.079 67.3915 137.28V137.116C67.6376 137.116 67.8847 137.116 68.1152 137.174C70.0923 137.377 71.9974 138.049 73.6824 139.135C75.2479 140.129 76.4524 141.629 77.1096 143.403C77.2829 143.913 77.4294 144.434 77.5473 144.961C77.6426 145.306 77.7059 145.659 77.7857 146.012C77.7979 146.058 77.7979 146.106 77.7857 146.152L77.5551 145.946C76.8269 145.263 76.0504 144.638 75.2322 144.075C73.9729 143.221 72.5271 142.704 71.0258 142.573C70.3742 142.529 69.7199 142.568 69.0773 142.688C69.0817 142.74 69.0817 142.793 69.0773 142.845C69.6078 147.483 70.1512 152.133 70.7077 156.795C70.7235 156.873 70.7235 156.954 70.7077 157.032C70.5045 157.816 70.0679 158.514 69.4596 159.026C68.6884 159.738 67.7681 160.255 66.7709 160.536C66.4935 160.627 66.2066 160.693 65.9284 160.766L65.1327 160.865H65.007C64.3808 160.906 63.753 160.817 63.1608 160.602C62.6652 160.449 62.2412 160.113 61.969 159.659C61.8765 159.482 61.7965 159.298 61.7298 159.109L61.6587 158.804L61.657 158.805ZM252.081 86.0227C252.185 85.8096 252.272 85.5884 252.391 85.3914C252.762 84.8337 253.266 84.3843 253.855 84.0868C254.845 83.5676 255.928 83.2657 257.036 83.2003C258.152 83.1089 259.275 83.2396 260.344 83.5853C261.03 83.8036 261.667 84.158 262.221 84.6285L262.372 84.7512C262.41 84.6748 262.442 84.5951 262.467 84.513C262.587 84.0294 262.698 83.545 262.802 83.0525L264.71 73.9439C265.394 70.6612 266.075 67.3624 266.754 64.0474L266.794 63.8504C267.071 63.9731 267.335 64.0796 267.589 64.2032C269.735 65.2343 271.624 66.7616 273.108 68.667C274.505 70.423 275.299 72.6073 275.366 74.8788C275.366 75.5235 275.335 76.1674 275.271 76.8076C275.271 77.2428 275.184 77.6278 275.136 78.0962C275.131 78.1485 275.114 78.1989 275.088 78.2439L274.897 77.9233C274.337 76.8598 273.699 75.842 272.989 74.8788C271.893 73.3991 270.454 72.2281 268.806 71.4734C268.088 71.1594 267.334 70.9415 266.563 70.8251H266.507C266.498 70.889 266.485 70.9522 266.467 71.014L263.032 87.3776C263.013 87.4734 262.978 87.565 262.928 87.648C262.401 88.4491 261.645 89.0602 260.766 89.3959C259.623 89.8813 258.388 90.0917 257.155 90.0111C256.805 90.0111 256.463 89.9618 256.113 89.9296L255.198 89.7326L255.048 89.6663C254.326 89.4599 253.653 89.1054 253.067 88.624C252.569 88.2441 252.217 87.6949 252.073 87.0731C252.042 86.8364 252.024 86.5982 252.017 86.3594L252.081 86.0227Z" fill="#CD7DF3"/>
<path d="M33.0166 45.4891C28.9212 45.4891 28.9134 52.0537 33.0166 52.0537C37.1208 52.0537 37.1208 45.49 33.0166 45.49V45.4891ZM342.45 52.6527C338.354 52.6527 338.347 59.2173 342.45 59.2173C346.554 59.2173 346.554 52.6536 342.45 52.6536V52.6527ZM290.115 37.5348C290.039 37.2637 289.9 37.0159 289.71 36.813L289.384 36.5587C289.143 36.411 288.869 36.3316 288.589 36.3286H288.143C287.93 36.3188 287.718 36.3699 287.531 36.4763C287.332 36.539 287.154 36.6554 287.015 36.813C286.865 36.9574 286.753 37.1377 286.688 37.3378C286.588 37.5321 286.541 37.7506 286.553 37.9699L286.609 38.4132C286.683 38.6854 286.823 38.9326 287.015 39.1349L287.34 39.3901C287.582 39.5343 287.856 39.6104 288.135 39.6113H288.581C288.793 39.6239 289.005 39.5755 289.194 39.4716C289.389 39.4045 289.566 39.289 289.71 39.1349C289.99 38.8143 290.154 38.4025 290.171 37.9708C290.156 37.8303 290.131 37.6825 290.116 37.5348H290.115ZM100.165 29.8625C97.6032 29.8625 97.5954 33.9655 100.165 33.9655C102.733 33.9655 102.725 29.8625 100.165 29.8625ZM329.278 69.7013C326.716 69.7013 326.716 73.8051 329.278 73.8051C331.838 73.8051 331.838 69.7022 329.278 69.7022V69.7013Z" fill="#698DFF"/>
</g>
</g>
<defs>
<clipPath id="clip0_0_7">
<rect width="386" height="197" fill="white"/>
</clipPath>
</defs>
</svg>
